<?xml version="1.0" encoding="utf-8"?>
<!-- Generator: Adobe Illustrator 19.2.1, SVG Export Plug-In . SVG Version: 6.00 Build 0)  -->
<!DOCTYPE svg PUBLIC "-//W3C//DTD SVG 1.1//EN" "http://www.w3.org/Graphics/SVG/1.1/DTD/svg11.dtd">
<svg version="1.1" id="Layer_1" xmlns="http://www.w3.org/2000/svg" xmlns:xlink="http://www.w3.org/1999/xlink" x="0px" y="0px"
	 viewBox="0 0 176.2 22.7" style="enable-background:new 0 0 176.2 22.7;" xml:space="preserve">
<style type="text/css">
	.st0{fill:#FFFFFF;}
</style>
<g>
	<polygon class="st0" points="119.2,22.7 119.2,0.1 132.7,0.1 132.7,2.8 122.4,2.8 122.4,9.6 131.8,9.6 131.8,12.4 122.4,12.4 
		122.4,19.8 132.9,19.8 132.9,22.7 	"/>
	<polygon class="st0" points="108.8,0 103.7,16.2 103.4,16.2 97.7,0.4 96.4,0.4 90.7,16.2 90.5,16.2 85.4,0 82,0 82,0.4 89.5,22.7 
		91.2,22.7 97,7.8 97.2,7.8 102.9,22.7 104.6,22.7 112.1,0.4 112.1,0 	"/>
	<polygon class="st0" points="21.4,0.1 11.5,11.5 1.7,0.1 0,0.1 0,22.7 3.2,22.7 3.2,6.6 11.5,16.1 19.9,6.6 19.9,22.7 23.1,22.7 
		23.1,0.1 	"/>
	<g>
		<path class="st0" d="M41.6,0h-1.4L29.8,22.3v0.4h3.3l2.3-4.8h11.1l2.3,4.8h3.3v-0.4L41.6,0z M36.6,15.3L41,6.1l4.3,9.3H36.6z"/>
	</g>
	<polygon class="st0" points="141.2,22.7 141.2,0.1 144.4,0.1 144.4,19.8 154.8,19.8 154.8,22.7 	"/>
	<polygon class="st0" points="162.5,22.7 162.5,0.1 165.7,0.1 165.7,19.8 176.2,19.8 176.2,22.7 	"/>
	<path class="st0" d="M66.6,0h-8.1v22.7h8.1c7.9,0,11-6.5,11-11.4C77.6,6.5,74.5,0,66.6,0z M66.5,19.9h-4.8V2.8h4.8
		c5.2,0,7.9,4.4,7.9,8.5C74.4,15.5,71.8,19.9,66.5,19.9z"/>
</g>
</svg>
